<?xml version="1.0"?>
<svg width="640" height="240" viewBox="0 0 640 240" xmlns="http://www.w3.org/2000/svg" role="img">
<title>Otherix — self-hosted KVM/QEMU orchestration</title>
<desc>Otherix banner, dark strip variant on transparent background. For overlay on any dark surface.</desc>
<defs>
<linearGradient id="vmCyber" x1="0" y1="0" x2="0" y2="1">
<stop offset="0%" stop-color="#ff6bb0"></stop>
<stop offset="100%" stop-color="#c61a5d"></stop>
</linearGradient>
</defs>
<g transform="translate(69, 42) scale(2)">
<rect x="17" y="14" width="14" height="14" rx="1.5" fill="url(#vmCyber)"></rect>
<rect x="33" y="14" width="14" height="14" rx="1.5" fill="url(#vmCyber)"></rect>
<rect x="49" y="14" width="14" height="14" rx="1.5" fill="url(#vmCyber)"></rect>
<line x1="14" y1="36" x2="66" y2="36" stroke="#22d3ee" stroke-width="1.8" stroke-dasharray="3,2"></line>
<rect x="14" y="42" width="52" height="22" fill="none" stroke="#8b5cf6" stroke-width="1.5"></rect>
<rect x="6" y="46" width="8" height="3" fill="#22d3ee"></rect>
<rect x="6" y="56" width="8" height="3" fill="#22d3ee"></rect>
<rect x="66" y="46" width="8" height="3" fill="#22d3ee"></rect>
<rect x="66" y="56" width="8" height="3" fill="#22d3ee"></rect>
<circle cx="20" cy="48" r="4" fill="#ec4899" opacity="0.3"></circle>
<circle cx="20" cy="48" r="2.2" fill="#ec4899"></circle>
<circle cx="20" cy="48" r="1" fill="#fce7f3"></circle>
</g>
<text x="257" y="129" font-family="ui-monospace, &#39;SF Mono&#39;, Menlo, Consolas, monospace" font-size="72" fill="#f0f4ff" textLength="302" lengthAdjust="spacing">otherix</text>
<text x="257" y="157" font-family="ui-monospace, &#39;SF Mono&#39;, Menlo, Consolas, monospace" font-size="24" fill="#22d3ee" textLength="302" lengthAdjust="spacing">// host·hypervisor·vm</text>
<text x="257" y="184" font-family="ui-monospace, &#39;SF Mono&#39;, Menlo, Consolas, monospace" font-size="14" fill="#ec4899" opacity="0.85">self-hosted KVM/QEMU orchestration</text>
</svg>