<?xml version="1.0" encoding="UTF-8"?>
<svg width="640" height="240" viewBox="0 0 640 240" xmlns="http://www.w3.org/2000/svg" role="img">
<title>Otherix — self-hosted KVM/QEMU orchestration</title>
<desc>Otherix README banner, light strip variant on transparent background (640x240). For overlay on any light surface.</desc>
<defs>
<linearGradient id="vmGrad" x1="0" y1="0" x2="0" y2="1">
<stop offset="0%" stop-color="#f5b860"/>
<stop offset="100%" stop-color="#d87a3a"/>
</linearGradient>
</defs>
<g transform="translate(69, 42) scale(2)">
<rect x="17" y="14" width="14" height="14" rx="1.5" fill="url(#vmGrad)"/>
<rect x="33" y="14" width="14" height="14" rx="1.5" fill="url(#vmGrad)"/>
<rect x="49" y="14" width="14" height="14" rx="1.5" fill="url(#vmGrad)"/>
<line x1="14" y1="36" x2="66" y2="36" stroke="#1a3a5c" stroke-width="1.8" stroke-dasharray="3,2"/>
<rect x="14" y="42" width="52" height="22" fill="none" stroke="#1a3a5c" stroke-width="1.5"/>
<rect x="6" y="46" width="8" height="3" fill="#1a3a5c"/>
<rect x="6" y="56" width="8" height="3" fill="#1a3a5c"/>
<rect x="66" y="46" width="8" height="3" fill="#1a3a5c"/>
<rect x="66" y="56" width="8" height="3" fill="#1a3a5c"/>
<circle cx="20" cy="48" r="4" fill="#e8a94a" opacity="0.25"/>
<circle cx="20" cy="48" r="2.2" fill="#e8a94a"/>
<circle cx="20" cy="48" r="1" fill="#fef5e0"/>
</g>
<text x="257" y="129" font-family="ui-monospace, 'SF Mono', Menlo, Consolas, monospace" font-size="72" fill="#1a3a5c" textLength="302" lengthAdjust="spacing">otherix</text>
<text x="257" y="157" font-family="ui-monospace, 'SF Mono', Menlo, Consolas, monospace" font-size="24" fill="#1a3a5c" opacity="0.7" textLength="302" lengthAdjust="spacing">// host&#183;hypervisor&#183;vm</text>
<text x="257" y="184" font-family="ui-monospace, 'SF Mono', Menlo, Consolas, monospace" font-size="14" fill="#1a3a5c" opacity="0.5">self-hosted KVM/QEMU orchestration</text>
</svg>
